<?xml version="1.0" encoding="UTF-8"?>
<svg xmlns="http://www.w3.org/2000/svg" viewBox="0 0 1280 720" role="img" aria-label="10天验算训练营 · 知识全景地图">
<defs>
  <linearGradient id="bg" x1="0" y1="0" x2="1" y2="1"><stop offset="0%" stop-color="#fafbff"/><stop offset="100%" stop-color="#eef2ff"/></linearGradient>
  <linearGradient id="hubGrad" x1="0" y1="0" x2="0" y2="1"><stop offset="0%" stop-color="#6366f1" stop-opacity="0.15"/><stop offset="100%" stop-color="#4f46e5" stop-opacity="0.05"/></linearGradient>
  <filter id="cardShadow" x="-15%" y="-15%" width="130%" height="140%">
    <feDropShadow dx="0" dy="4" stdDeviation="6" flood-color="#0f172a" flood-opacity="0.12"/>
  </filter>
  <marker id="arrow" markerWidth="8" markerHeight="8" refX="6" refY="3" orient="auto">
    <path d="M0,0 L6,3 L0,6 Z" fill="#6366f1" opacity="0.5"/>
  </marker>
  <pattern id="dotGrid" width="32" height="32" patternUnits="userSpaceOnUse">
    <circle cx="4" cy="4" r="1.3" fill="#6366f1" opacity="0.07"/>
  </pattern>
</defs>
<rect width="1280" height="720" fill="url(#bg)"/>
<rect width="1280" height="720" fill="url(#dotGrid)"/>
<rect x="0" y="0" width="1280" height="56" fill="white" opacity="0.55"/>
<text x="48" y="36" font-family="'Noto Sans SC', 'PingFang SC', 'Microsoft YaHei', system-ui, sans-serif" font-size="15" font-weight="600" fill="#64748b">TeachAny · 知识全景地图</text>
<ellipse cx="640" cy="300" rx="320" ry="120" fill="url(#hubGrad)"/>
<circle cx="640" cy="232" r="62" fill="#6366f1" opacity="0.08"/>
<circle cx="640" cy="232" r="44" fill="white" stroke="#6366f1" stroke-width="3" opacity="0.95"/>
<circle cx="640.0" cy="200.0" r="5" fill="#6366f1" opacity="0.75"/>
<circle cx="667.7" cy="216.0" r="5" fill="#6366f1" opacity="0.75"/>
<circle cx="667.7" cy="248.0" r="5" fill="#6366f1" opacity="0.75"/>
<circle cx="640.0" cy="264.0" r="5" fill="#6366f1" opacity="0.75"/>
<circle cx="612.3" cy="248.0" r="5" fill="#6366f1" opacity="0.75"/>
<circle cx="612.3" cy="216.0" r="5" fill="#6366f1" opacity="0.75"/>
<circle cx="640" cy="232" r="10" fill="#6366f1"/>
<text x="640" y="248" text-anchor="middle" font-family="'Noto Sans SC', 'PingFang SC', 'Microsoft YaHei', system-ui, sans-serif" font-size="46" font-weight="800" fill="#0f172a">10天验算训练营</text>
<text x="640" y="286" text-anchor="middle" font-family="'Noto Sans SC', 'PingFang SC', 'Microsoft YaHei', system-ui, sans-serif" font-size="20" font-weight="500" fill="#64748b">先算后验，错误无处藏</text>
<line x1="500" y1="302" x2="780" y2="302" stroke="#6366f1" stroke-width="3" stroke-linecap="round" opacity="0.65"/>
<text x="640" y="328" text-anchor="middle" font-family="'Noto Sans SC', 'PingFang SC', 'Microsoft YaHei', system-ui, sans-serif" font-size="15" fill="#475569">{{DESCRIPTION}}</text>
<path d="M640,340 Q400,375 160,420" fill="none" stroke="#6366f1" stroke-width="2" stroke-dasharray="7 5" opacity="0.45" marker-end="url(#arrow)"/>
<path d="M640,340 Q500,410 360,490" fill="none" stroke="#6366f1" stroke-width="2" stroke-dasharray="7 5" opacity="0.45" marker-end="url(#arrow)"/>
<path d="M640,340 Q590,430 540,530" fill="none" stroke="#6366f1" stroke-width="2" stroke-dasharray="7 5" opacity="0.45" marker-end="url(#arrow)"/>
<path d="M640,340 Q690,430 740,530" fill="none" stroke="#6366f1" stroke-width="2" stroke-dasharray="7 5" opacity="0.45" marker-end="url(#arrow)"/>
<path d="M640,340 Q780,410 920,490" fill="none" stroke="#6366f1" stroke-width="2" stroke-dasharray="7 5" opacity="0.45" marker-end="url(#arrow)"/>
<path d="M640,340 Q880,375 1120,420" fill="none" stroke="#6366f1" stroke-width="2" stroke-dasharray="7 5" opacity="0.45" marker-end="url(#arrow)"/>
<g filter="url(#cardShadow)">
<rect x="36.0" y="411.0" width="248" height="118" rx="14" fill="white" stroke="#6366f1" stroke-width="2.5"/>
<rect x="36.0" y="411.0" width="248" height="34" rx="14" fill="#eef2ff"/>
<rect x="36.0" y="431.0" width="248" height="14" fill="#eef2ff"/>
<rect x="36.0" y="411.0" width="5" height="118" rx="2.5" fill="#6366f1"/>
<text x="160" y="435.0" text-anchor="middle" font-family="'Noto Sans SC', 'PingFang SC', 'Microsoft YaHei', system-ui, sans-serif" font-size="18" font-weight="700" fill="#1e293b">加法验算</text>
</g>
<g filter="url(#cardShadow)">
<rect x="236.0" y="481.0" width="248" height="118" rx="14" fill="white" stroke="#06b6d4" stroke-width="2.5"/>
<rect x="236.0" y="481.0" width="248" height="34" rx="14" fill="#ecfeff"/>
<rect x="236.0" y="501.0" width="248" height="14" fill="#ecfeff"/>
<rect x="236.0" y="481.0" width="5" height="118" rx="2.5" fill="#06b6d4"/>
<text x="360" y="505.0" text-anchor="middle" font-family="'Noto Sans SC', 'PingFang SC', 'Microsoft YaHei', system-ui, sans-serif" font-size="18" font-weight="700" fill="#1e293b">减法验算</text>
</g>
<g filter="url(#cardShadow)">
<rect x="416.0" y="521.0" width="248" height="118" rx="14" fill="white" stroke="#10b981" stroke-width="2.5"/>
<rect x="416.0" y="521.0" width="248" height="34" rx="14" fill="#ecfdf5"/>
<rect x="416.0" y="541.0" width="248" height="14" fill="#ecfdf5"/>
<rect x="416.0" y="521.0" width="5" height="118" rx="2.5" fill="#10b981"/>
<text x="540" y="545.0" text-anchor="middle" font-family="'Noto Sans SC', 'PingFang SC', 'Microsoft YaHei', system-ui, sans-serif" font-size="18" font-weight="700" fill="#1e293b">乘法验算</text>
</g>
<g filter="url(#cardShadow)">
<rect x="616.0" y="521.0" width="248" height="118" rx="14" fill="white" stroke="#f59e0b" stroke-width="2.5"/>
<rect x="616.0" y="521.0" width="248" height="34" rx="14" fill="#fffbeb"/>
<rect x="616.0" y="541.0" width="248" height="14" fill="#fffbeb"/>
<rect x="616.0" y="521.0" width="5" height="118" rx="2.5" fill="#f59e0b"/>
<text x="740" y="545.0" text-anchor="middle" font-family="'Noto Sans SC', 'PingFang SC', 'Microsoft YaHei', system-ui, sans-serif" font-size="18" font-weight="700" fill="#1e293b">除法验算</text>
</g>
<g filter="url(#cardShadow)">
<rect x="796.0" y="481.0" width="248" height="118" rx="14" fill="white" stroke="#ec4899" stroke-width="2.5"/>
<rect x="796.0" y="481.0" width="248" height="34" rx="14" fill="#fdf2f8"/>
<rect x="796.0" y="501.0" width="248" height="14" fill="#fdf2f8"/>
<rect x="796.0" y="481.0" width="5" height="118" rx="2.5" fill="#ec4899"/>
<text x="920" y="505.0" text-anchor="middle" font-family="'Noto Sans SC', 'PingFang SC', 'Microsoft YaHei', system-ui, sans-serif" font-size="18" font-weight="700" fill="#1e293b">估算</text>
</g>
<g filter="url(#cardShadow)">
<rect x="996.0" y="411.0" width="248" height="118" rx="14" fill="white" stroke="#8b5cf6" stroke-width="2.5"/>
<rect x="996.0" y="411.0" width="248" height="34" rx="14" fill="#f5f3ff"/>
<rect x="996.0" y="431.0" width="248" height="14" fill="#f5f3ff"/>
<rect x="996.0" y="411.0" width="5" height="118" rx="2.5" fill="#8b5cf6"/>
<text x="1120" y="435.0" text-anchor="middle" font-family="'Noto Sans SC', 'PingFang SC', 'Microsoft YaHei', system-ui, sans-serif" font-size="18" font-weight="700" fill="#1e293b">尾数检查</text>
</g>
<text x="1248" y="702" text-anchor="end" font-family="'Noto Sans SC', 'PingFang SC', 'Microsoft YaHei', system-ui, sans-serif" font-size="11" fill="#94a3b8">math-review-calculation-check-10days · SVG hero v8</text>
</svg>