<?xml version="1.0" encoding="UTF-8"?>
<svg xmlns="http://www.w3.org/2000/svg" viewBox="0 0 1280 720" role="img" aria-label="旋转、对称与平移 · 知识全景地图">
<defs>
  <linearGradient id="bg" x1="0" y1="0" x2="1" y2="1"><stop offset="0%" stop-color="#fffbeb"/><stop offset="100%" stop-color="#fef3c7"/></linearGradient>
  <linearGradient id="hubGrad" x1="0" y1="0" x2="0" y2="1"><stop offset="0%" stop-color="#f59e0b" stop-opacity="0.15"/><stop offset="100%" stop-color="#d97706" stop-opacity="0.05"/></linearGradient>
  <filter id="cardShadow" x="-15%" y="-15%" width="130%" height="140%">
    <feDropShadow dx="0" dy="4" stdDeviation="6" flood-color="#0f172a" flood-opacity="0.12"/>
  </filter>
  <marker id="arrow" markerWidth="8" markerHeight="8" refX="6" refY="3" orient="auto">
    <path d="M0,0 L6,3 L0,6 Z" fill="#f59e0b" opacity="0.5"/>
  </marker>
  <pattern id="dotGrid" width="32" height="32" patternUnits="userSpaceOnUse">
    <circle cx="4" cy="4" r="1.3" fill="#f59e0b" opacity="0.07"/>
  </pattern>
</defs>
<rect width="1280" height="720" fill="url(#bg)"/>
<rect width="1280" height="720" fill="url(#dotGrid)"/>
<rect x="0" y="0" width="1280" height="56" fill="white" opacity="0.55"/>
<text x="48" y="36" font-family="'Noto Sans SC', 'PingFang SC', 'Microsoft YaHei', system-ui, sans-serif" font-size="15" font-weight="600" fill="#64748b">TeachAny · 知识全景地图</text>
<ellipse cx="640" cy="300" rx="320" ry="120" fill="url(#hubGrad)"/>
<circle cx="640" cy="232" r="62" fill="#f59e0b" opacity="0.08"/>
<circle cx="640" cy="232" r="44" fill="white" stroke="#f59e0b" stroke-width="3" opacity="0.95"/>
<circle cx="640.0" cy="200.0" r="5" fill="#f59e0b" opacity="0.75"/>
<circle cx="667.7" cy="216.0" r="5" fill="#f59e0b" opacity="0.75"/>
<circle cx="667.7" cy="248.0" r="5" fill="#f59e0b" opacity="0.75"/>
<circle cx="640.0" cy="264.0" r="5" fill="#f59e0b" opacity="0.75"/>
<circle cx="612.3" cy="248.0" r="5" fill="#f59e0b" opacity="0.75"/>
<circle cx="612.3" cy="216.0" r="5" fill="#f59e0b" opacity="0.75"/>
<circle cx="640" cy="232" r="10" fill="#f59e0b"/>
<text x="640" y="248" text-anchor="middle" font-family="'Noto Sans SC', 'PingFang SC', 'Microsoft YaHei', system-ui, sans-serif" font-size="46" font-weight="800" fill="#0f172a">旋转、对称与平移</text>
<text x="640" y="286" text-anchor="middle" font-family="'Noto Sans SC', 'PingFang SC', 'Microsoft YaHei', system-ui, sans-serif" font-size="20" font-weight="500" fill="#64748b">小学 · 数学 · geometry</text>
<line x1="500" y1="302" x2="780" y2="302" stroke="#f59e0b" stroke-width="3" stroke-linecap="round" opacity="0.65"/>
<text x="640" y="328" text-anchor="middle" font-family="'Noto Sans SC', 'PingFang SC', 'Microsoft YaHei', system-ui, sans-serif" font-size="15" fill="#475569">通过互动游戏和动手操作，探索轴对称、平移和旋转三种图形变换的奥秘，发现生活中隐藏的对称美。含Canva…</text>
<path d="M640,340 Q430,390 220,450" fill="none" stroke="#f59e0b" stroke-width="2" stroke-dasharray="7 5" opacity="0.45" marker-end="url(#arrow)"/>
<path d="M640,340 Q550,420 460,510" fill="none" stroke="#f59e0b" stroke-width="2" stroke-dasharray="7 5" opacity="0.45" marker-end="url(#arrow)"/>
<path d="M640,340 Q730,420 820,510" fill="none" stroke="#f59e0b" stroke-width="2" stroke-dasharray="7 5" opacity="0.45" marker-end="url(#arrow)"/>
<path d="M640,340 Q850,390 1060,450" fill="none" stroke="#f59e0b" stroke-width="2" stroke-dasharray="7 5" opacity="0.45" marker-end="url(#arrow)"/>
<g filter="url(#cardShadow)">
<rect x="96.0" y="441.0" width="248" height="118" rx="14" fill="white" stroke="#6366f1" stroke-width="2.5"/>
<rect x="96.0" y="441.0" width="248" height="34" rx="14" fill="#eef2ff"/>
<rect x="96.0" y="461.0" width="248" height="14" fill="#eef2ff"/>
<rect x="96.0" y="441.0" width="5" height="118" rx="2.5" fill="#6366f1"/>
<text x="220" y="465.0" text-anchor="middle" font-family="'Noto Sans SC', 'PingFang SC', 'Microsoft YaHei', system-ui, sans-serif" font-size="18" font-weight="700" fill="#1e293b">辨别生活中的轴对称图形</text>
<text x="112.0" y="493.0" font-family="'Noto Sans SC', 'PingFang SC', 'Microsoft YaHei', system-ui, sans-serif" font-size="13" font-weight="400" fill="#475569"><tspan x="112.0" dy="0">· 找到对称轴</tspan></text>
</g>
<g filter="url(#cardShadow)">
<rect x="336.0" y="501.0" width="248" height="118" rx="14" fill="white" stroke="#06b6d4" stroke-width="2.5"/>
<rect x="336.0" y="501.0" width="248" height="34" rx="14" fill="#ecfeff"/>
<rect x="336.0" y="521.0" width="248" height="14" fill="#ecfeff"/>
<rect x="336.0" y="501.0" width="5" height="118" rx="2.5" fill="#06b6d4"/>
<text x="460" y="525.0" text-anchor="middle" font-family="'Noto Sans SC', 'PingFang SC', 'Microsoft YaHei', system-ui, sans-serif" font-size="18" font-weight="700" fill="#1e293b">用方向和距离描述图形的平移运动</text>
</g>
<g filter="url(#cardShadow)">
<rect x="696.0" y="501.0" width="248" height="118" rx="14" fill="white" stroke="#10b981" stroke-width="2.5"/>
<rect x="696.0" y="501.0" width="248" height="34" rx="14" fill="#ecfdf5"/>
<rect x="696.0" y="521.0" width="248" height="14" fill="#ecfdf5"/>
<rect x="696.0" y="501.0" width="5" height="118" rx="2.5" fill="#10b981"/>
<text x="820" y="525.0" text-anchor="middle" font-family="'Noto Sans SC', 'PingFang SC', 'Microsoft YaHei', system-ui, sans-serif" font-size="18" font-weight="700" fill="#1e293b">识别旋转现象</text>
<text x="712.0" y="553.0" font-family="'Noto Sans SC', 'PingFang SC', 'Microsoft YaHei', system-ui, sans-serif" font-size="13" font-weight="400" fill="#475569"><tspan x="712.0" dy="0">· 知道旋转围绕着中心点转动</tspan></text>
</g>
<g filter="url(#cardShadow)">
<rect x="936.0" y="441.0" width="248" height="118" rx="14" fill="white" stroke="#f59e0b" stroke-width="2.5"/>
<rect x="936.0" y="441.0" width="248" height="34" rx="14" fill="#fffbeb"/>
<rect x="936.0" y="461.0" width="248" height="14" fill="#fffbeb"/>
<rect x="936.0" y="441.0" width="5" height="118" rx="2.5" fill="#f59e0b"/>
<text x="1060" y="465.0" text-anchor="middle" font-family="'Noto Sans SC', 'PingFang SC', 'Microsoft YaHei', system-ui, sans-serif" font-size="18" font-weight="700" fill="#1e293b">区分三种变换：平移、旋转、对称</text>
<text x="952.0" y="493.0" font-family="'Noto Sans SC', 'PingFang SC', 'Microsoft YaHei', system-ui, sans-serif" font-size="13" font-weight="400" fill="#475569"><tspan x="952.0" dy="0">· 说出它们的不同</tspan></text>
</g>
<text x="1248" y="702" text-anchor="end" font-family="'Noto Sans SC', 'PingFang SC', 'Microsoft YaHei', system-ui, sans-serif" font-size="11" fill="#94a3b8">math-e-symmetry-translation-rotation · SVG hero v8</text>
</svg>